# xmcd
#
# Track frame offsets: 
#        150
#        5800
#        30298
#        53669
#        83485
#        105827
#        129423
#        147207
#        168130
#        188578
#
# Disc length: 2801 seconds
#
# Revision: 0
# Processed by: cddbd v1.5.1PL2 Copyright (c) Steve Scherf et al.
# Submitted via: ExactAudioCopy v0.95b3
#
DISCID=670aef0a
DTITLE=El Baile Alemán - Senor Coconut
DYEAR=2000
DGENRE=
TTITLE0=Introducción 
TTITLE1=Showroom Dummies (Cha-Cha-Cha) 
TTITLE2=Trans Europe Express (Cumbia)
TTITLE3=The Robots (Cha-Cha-Cha) 
TTITLE4=Neon Lights (Cha-Cha-Cha) 
TTITLE5=Autobahn (Cumbia Merengue) 
TTITLE6=Homecomputer (Merengue)
TTITLE7=Tour de France (Merengue)
TTITLE8=The Man Machine (Baclán)
TTITLE9=Music Non Stop (Cumbia) 
EXTD=
EXTT0=
EXTT1=
EXTT2=
EXTT3=
EXTT4=
EXTT5=
EXTT6=
EXTT7=
EXTT8=
EXTT9=
PLAYORDER=
